# xmcd
#
# Track frame offsets: 
#        150
#        16327
#        32841
#        49481
#        66437
#        75945
#        88281
#        106596
#        118143
#        134559
#        148460
#        161129
#        179077
#        191711
#        204216
#        221660
#        243915
#
# Disc length: 3461 seconds
#
# Revision: 0
# Processed by: cddbd v1.5.2PL0 Copyright (c) Steve Scherf et al.
# Submitted via: ExactAudioCopy v1.3
#
DISCID=040d8311
DTITLE=Almost Patsy Cline Band - Love at First Dance
DYEAR=1900
DGENRE=Country
TTITLE0=Will You Still Love Me Then
TTITLE1=Golden Dewey
TTITLE2=Love at First Dance
TTITLE3=Those Memories of You
TTITLE4=Back in Baby's Arms
TTITLE5=We're Gonna Go to Mexico
TTITLE6=My Memories
TTITLE7=Fox on the Run
TTITLE8=Sweet Dreams (Of You)
TTITLE9=I Fall to Pieces
TTITLE10=Fool Moon
TTITLE11=Will You Still Love Me Tomorrow
TTITLE12=I Don't Hurt Anymore
TTITLE13=Stand by Your Man
TTITLE14=Running Kind
TTITLE15=Crazy
TTITLE16=Wings of a Dove
EXTD=
EXTT0=
EXTT1=
EXTT2=
EXTT3=
EXTT4=
EXTT5=
EXTT6=
EXTT7=
EXTT8=
EXTT9=
EXTT10=
EXTT11=
EXTT12=
EXTT13=
EXTT14=
EXTT15=
EXTT16=
PLAYORDER=
